<?xml version="1.0" standalone="no"?>
<!DOCTYPE svg PUBLIC "-//W3C//DTD SVG 20010904//EN"
 "http://www.w3.org/TR/2001/REC-SVG-20010904/DTD/svg10.dtd">
<svg version="1.0" xmlns="http://www.w3.org/2000/svg"
 width="400.000000pt" height="400.000000pt" viewBox="0 0 400.000000 400.000000"
 preserveAspectRatio="xMidYMid meet">
<metadata>
Created by potrace 1.14, written by Peter Selinger 2001-2017
</metadata>
<g transform="translate(0.000000,400.000000) scale(0.100000,-0.100000)"
fill="#000000" stroke="none">
<path d="M1243 3876 c-138 -34 -234 -178 -221 -334 4 -45 10 -60 32 -79 38
-32 69 -37 109 -18 41 19 57 50 57 111 0 25 7 59 16 75 30 60 22 59 721 58
351 -1 649 -4 662 -8 37 -10 63 -53 68 -113 6 -76 20 -104 60 -123 44 -21 77
-13 116 28 28 31 29 34 25 112 -9 155 -96 264 -236 294 -79 16 -1338 14 -1409
-3z"/>
<path d="M568 3315 c-102 -37 -166 -108 -193 -211 -11 -41 -15 -109 -15 -230
0 -223 15 -278 95 -359 44 -44 67 -58 121 -75 37 -11 94 -20 130 -20 l64 0 0
-918 c0 -870 1 -920 19 -982 52 -180 199 -317 378 -355 101 -22 1526 -21 1627
0 179 38 325 175 377 355 18 62 19 112 19 982 l0 918 64 0 c160 0 284 83 326
216 17 56 20 93 20 238 0 121 -4 189 -15 230 -24 92 -75 155 -162 197 l-48 24
-1385 2 c-1141 1 -1391 -1 -1422 -12z m2793 -214 l29 -29 0 -192 0 -192 -29
-29 c-27 -27 -35 -29 -100 -29 l-71 0 0 168 c0 143 -3 170 -18 188 -35 44 -82
55 -131 30 -44 -23 -51 -52 -51 -226 l0 -160 -455 0 -455 0 0 160 c0 120 -4
168 -14 189 -35 66 -137 66 -172 0 -10 -21 -14 -69 -14 -189 l0 -160 -180 0
-180 0 0 166 c0 94 -4 174 -10 185 -29 53 -116 61 -161 13 -23 -25 -24 -32
-27 -195 l-4 -169 -174 0 -174 0 0 160 c0 176 -7 206 -55 228 -48 22 -93 11
-127 -32 -15 -18 -18 -45 -18 -188 l0 -168 -71 0 c-65 0 -73 2 -100 29 l-29
29 0 192 0 192 29 29 29 29 1352 0 1352 0 29 -29z m-371 -1578 c0 -974 0 -967
-55 -1039 -42 -55 -66 -75 -125 -103 l-55 -26 -775 0 -775 0 -53 24 c-62 28
-145 114 -164 169 -10 29 -13 246 -16 955 l-2 917 1010 0 1010 0 0 -897z"/>
<path d="M2488 3015 c-15 -8 -32 -24 -38 -35 -13 -25 -13 -173 1 -203 24 -53
102 -62 151 -18 33 29 33 30 33 120 0 84 -2 92 -26 116 -31 32 -85 40 -121 20z"/>
<path d="M1902 2254 c-42 -22 -60 -47 -160 -221 -89 -154 -98 -190 -62 -236
25 -32 79 -44 120 -27 24 10 46 40 103 141 39 71 74 129 77 129 3 0 17 -22 31
-48 15 -26 74 -129 132 -229 l105 -182 -48 6 c-45 5 -52 3 -79 -24 -39 -40
-47 -73 -26 -116 19 -40 37 -50 159 -82 50 -13 118 -31 150 -40 88 -23 138 1
157 75 4 14 19 70 35 125 15 55 29 125 32 155 3 48 1 58 -21 78 -14 13 -43 26
-64 29 -32 4 -45 1 -68 -20 -16 -13 -34 -39 -40 -57 l-11 -33 -155 268 c-107
185 -164 275 -187 293 -44 33 -131 41 -180 16z"/>
<path d="M1558 1685 c-4 -5 -106 -33 -215 -59 -69 -17 -99 -38 -113 -80 -25
-77 46 -149 125 -127 19 5 35 8 35 7 0 -1 -70 -123 -155 -271 -85 -148 -158
-284 -161 -303 -10 -51 22 -119 74 -159 l44 -33 206 0 c187 1 209 2 229 19 48
40 51 110 6 153 -23 22 -33 23 -179 26 -86 2 -154 7 -152 11 2 4 61 108 132
230 l129 224 21 -44 c35 -73 114 -90 166 -34 32 34 29 74 -19 250 -46 170 -63
195 -130 195 -21 0 -40 -2 -43 -5z"/>
<path d="M2551 1214 c-49 -41 -44 -83 28 -207 32 -56 63 -112 70 -124 l12 -23
-267 0 -266 0 26 31 c58 69 14 169 -75 169 -37 0 -47 -8 -169 -129 -127 -126
-130 -130 -130 -172 0 -42 4 -47 128 -171 123 -123 130 -128 169 -128 92 0
132 83 78 163 l-26 37 316 0 c345 0 348 0 398 59 33 40 51 95 43 134 -8 41
-182 346 -210 369 -32 27 -89 23 -125 -8z"/>
</g>
</svg>
