<?xml version="1.0" standalone="no"?>
<!DOCTYPE svg PUBLIC "-//W3C//DTD SVG 20010904//EN"
 "http://www.w3.org/TR/2001/REC-SVG-20010904/DTD/svg10.dtd">
<svg version="1.0" xmlns="http://www.w3.org/2000/svg"
 width="400.000000pt" height="400.000000pt" viewBox="0 0 400.000000 400.000000"
 preserveAspectRatio="xMidYMid meet">
<metadata>
Created by potrace 1.14, written by Peter Selinger 2001-2017
</metadata>
<g transform="translate(0.000000,400.000000) scale(0.100000,-0.100000)"
fill="#000000" stroke="none">
<path d="M1243 3876 c-80 -20 -146 -76 -191 -161 -22 -42 -26 -63 -26 -138 -1
-85 0 -90 27 -113 39 -33 69 -39 110 -19 41 19 57 50 57 111 0 25 7 59 16 75
30 60 22 59 721 58 351 -1 649 -4 662 -8 37 -10 63 -53 68 -113 6 -76 20 -104
60 -123 44 -21 77 -13 115 27 25 26 28 38 28 92 0 159 -94 284 -238 315 -79
16 -1338 14 -1409 -3z"/>
<path d="M568 3315 c-83 -31 -138 -81 -177 -165 -25 -54 -26 -60 -26 -265 0
-255 8 -288 91 -370 43 -44 66 -58 120 -75 37 -11 94 -20 130 -20 l64 0 0
-918 c0 -870 1 -920 19 -982 52 -180 199 -317 378 -355 101 -22 1526 -21 1627
0 179 38 325 175 377 355 18 62 19 112 19 982 l0 918 64 0 c160 0 284 83 326
216 17 56 20 93 20 238 0 121 -4 189 -15 230 -24 92 -75 155 -162 197 l-48 24
-1385 2 c-1141 1 -1391 -1 -1422 -12z m2794 -213 c22 -22 23 -30 26 -217 l3
-195 -30 -30 c-27 -28 -35 -30 -100 -30 l-71 0 0 166 c0 151 -2 168 -20 195
-39 54 -135 47 -165 -12 -11 -21 -15 -68 -15 -189 l0 -160 -455 0 -455 0 0
170 c0 167 -1 171 -24 195 -45 45 -107 45 -152 0 -23 -24 -24 -28 -24 -195 l0
-170 -174 0 -174 0 -3 171 -4 171 -33 29 c-46 42 -93 40 -138 -5 l-34 -34 0
-166 0 -166 -175 0 -175 0 0 160 c0 121 -4 168 -15 189 -30 59 -126 66 -165
12 -18 -27 -20 -44 -20 -195 l0 -166 -71 0 c-65 0 -73 2 -100 29 l-29 29 0
189 c0 202 5 223 54 243 11 5 622 8 1368 7 l1347 -2 23 -23z m-372 -1574 c0
-967 0 -956 -55 -1039 -28 -43 -90 -92 -144 -115 -28 -12 -163 -14 -812 -14
l-778 0 -48 23 c-57 26 -106 68 -134 114 -49 78 -49 80 -49 1031 l0 892 1010
0 1010 0 0 -892z"/>
<path d="M2471 3005 c-24 -21 -31 -36 -36 -80 -19 -150 43 -230 142 -185 50
22 63 53 63 146 0 73 -1 77 -34 110 -43 43 -90 46 -135 9z"/>
<path d="M1895 2252 c-35 -22 -70 -66 -112 -142 -16 -30 -51 -90 -76 -133 -60
-101 -64 -151 -15 -192 27 -23 39 -26 75 -22 24 2 50 10 58 17 8 7 44 64 81
129 79 137 73 130 85 111 16 -26 61 -103 87 -150 14 -25 42 -74 64 -109 21
-34 38 -65 38 -67 0 -2 14 -25 30 -51 17 -26 30 -49 30 -53 0 -3 -20 -4 -45
-2 -40 4 -49 0 -80 -31 -39 -39 -44 -70 -20 -117 18 -34 54 -51 169 -81 192
-49 206 -52 236 -39 41 17 48 28 71 111 77 276 78 291 27 334 -56 47 -136 25
-160 -44 l-13 -40 -149 260 c-148 258 -180 303 -224 320 -40 16 -125 10 -157
-9z"/>
<path d="M1540 1681 c-14 -5 -63 -18 -110 -31 -139 -36 -170 -49 -191 -84 -24
-39 -24 -63 0 -102 25 -42 72 -60 117 -46 l35 10 -20 -31 c-59 -97 -275 -477
-287 -506 -19 -44 -17 -78 5 -126 22 -50 69 -91 119 -105 20 -5 111 -10 202
-10 137 0 171 3 200 18 65 32 79 101 31 154 l-29 33 -155 5 -154 5 131 227
c128 222 131 226 141 196 15 -44 59 -78 100 -78 42 0 91 39 100 80 6 29 1 50
-56 252 -10 36 -19 73 -19 81 0 8 -14 27 -31 41 -32 27 -78 33 -129 17z"/>
<path d="M2575 1235 c-43 -22 -55 -43 -55 -91 0 -34 14 -66 69 -163 l70 -121
-266 0 -266 0 21 23 c68 72 27 177 -70 177 -37 0 -47 -8 -164 -121 -129 -127
-153 -164 -135 -211 15 -41 248 -265 281 -272 92 -18 158 88 100 161 l-22 28
315 5 315 5 39 31 c43 34 83 104 83 146 0 34 -25 86 -119 251 -92 159 -127
187 -196 152z"/>
</g>
</svg>
